# xmcd CD database file
#
# Track frame offsets:
#	150
#	12543
#	29238
#	31010
#	41540
#	43146
#	53002
#	55361
#	65671
#	75450
#	86025
#	90038
#	101423
#	116671
#	130262
#	131661
#	142728
#	156887
#	160493
#	172433
#
# Disc length: 2608 seconds
#
# Revision: 1
# Processed by: cddbd v1.5.1PL0 Copyright (c) Steve Scherf et al.
# Submitted via: CDex 1.51
#
DISCID=110a2e14
DTITLE=Vilde Bjerke - Alene
DYEAR=2004
DGENRE=Jazz
TTITLE0=Du er mitt hav
TTITLE1=Ode til musikkindustrien
TTITLE2=Du er gått
TTITLE3=Tenker på deg
TTITLE4=Uten strå
TTITLE5=Alene
TTITLE6=Trestammen
TTITLE7=Tango for barn i krig
TTITLE8=Vuggesang
TTITLE9=Månemann
TTITLE10=Grønne øyne
TTITLE11=Kyss meg
TTITLE12=Hendene
TTITLE13=Barn under ditt hjerte
TTITLE14=Ventetid
TTITLE15=Drøm
TTITLE16=Fotografi
TTITLE17=Bare fordi
TTITLE18=Eplet og stjernen
TTITLE19=Free like a bird
EXTD=YEAR: 2004
EXTT0=
EXTT1=
EXTT2=
EXTT3=
EXTT4=
EXTT5=
EXTT6=
EXTT7=
EXTT8=
EXTT9=
EXTT10=
EXTT11=
EXTT12=
EXTT13=
EXTT14=
EXTT15=
EXTT16=
EXTT17=
EXTT18=
EXTT19=
PLAYORDER=
